{
  "accessors": [
    {
      "bufferView": 1,
      "componentType": 5126,
      "count": 240,
      "max": [
        0.9510599970817566,
        1.0,
        1.0
      ],
      "min": [
        -0.9510599970817566,
        -1.0,
        -1.0
      ],
      "type": "VEC3"
    },
    {
      "bufferView": 1,
      "byteOffset": 2880,
      "componentType": 5126,
      "count": 240,
      "max": [
        0.9920772314071655,
        0.9435210227966309,
        0.943524956703186
      ],
      "min": [
        -0.9920772314071655,
        -0.9435210227966309,
        -0.943524956703186
      ],
      "type": "VEC3"
    },
    {
      "bufferView": 0,
      "componentType": 5125,
      "count": 240,
      "type": "SCALAR"
    },
    {
      "bufferView": 1,
      "byteOffset": 5760,
      "componentType": 5126,
      "count": 63738,
      "max": [
        1.1545000076293945,
        1.2368299961090088,
        1.2355799674987793
      ],
      "min": [
        -1.1967099905014038,
        -1.2136000394821167,
        -1.2354700565338135
      ],
      "type": "VEC3"
    },
    {
      "bufferView": 1,
      "byteOffset": 770616,
      "componentType": 5126,
      "count": 63738,
      "max": [
        0.9920772314071655,
        1.0,
        0.999359667301178
      ],
      "min": [
        -0.9996939301490784,
        -1.0,
        -0.9973183274269104
      ],
      "type": "VEC3"
    },
    {
      "bufferView": 0,
      "byteOffset": 960,
      "componentType": 5125,
      "count": 90000,
      "type": "SCALAR"
    },
    {
      "bufferView": 1,
      "byteOffset": 1535472,
      "componentType": 5126,
      "count": 65532,
      "max": [
        1.1367000341415405,
        1.0178899765014648,
        0.18320000171661377
      ],
      "min": [
        -1.2005499601364136,
        -1.2062000036239624,
        -1.2128499746322632
      ],
      "type": "VEC3"
    },
    {
      "bufferView": 1,
      "byteOffset": 2321856,
      "componentType": 5126,
      "count": 65532,
      "max": [
        0.9988935589790344,
        0.9993737936019897,
        0.9976258277893066
      ],
      "min": [
        -0.9969589114189148,
        -0.9996809363365173,
        -0.9994596242904663
      ],
      "type": "VEC3"
    },
    {
      "bufferView": 0,
      "byteOffset": 360960,
      "componentType": 5125,
      "count": 98298,
      "type": "SCALAR"
    },
    {
      "bufferView": 1,
      "byteOffset": 3108240,
      "componentType": 5126,
      "count": 65532,
      "max": [
        1.0991499423980713,
        1.1668100357055664,
        1.2090400457382202
      ],
      "min": [
        -1.1921800374984741,
        -1.1510900259017944,
        -0.5687900185585022
      ],
      "type": "VEC3"
    },
    {
      "bufferView": 1,
      "byteOffset": 3894624,
      "componentType": 5126,
      "count": 65532,
      "max": [
        0.9995107054710388,
        0.9991941452026367,
        0.9978284239768982
      ],
      "min": [
        -0.9993695020675659,
        -0.9992825984954834,
        -0.9993970394134521
      ],
      "type": "VEC3"
    },
    {
      "bufferView": 0,
      "byteOffset": 754152,
      "componentType": 5125,
      "count": 98298,
      "type": "SCALAR"
    },
    {
      "bufferView": 1,
      "byteOffset": 4681008,
      "componentType": 5126,
      "count": 65532,
      "max": [
        0.8585799932479858,
        1.0435999631881714,
        1.2396899461746216
      ],
      "min": [
        -1.039330005645752,
        -0.9925400018692017,
        0.21491999924182892
      ],
      "type": "VEC3"
    },
    {
      "bufferView": 1,
      "byteOffset": 5467392,
      "componentType": 5126,
      "count": 65532,
      "max": [
        0.9997327327728271,
        0.9995097517967224,
        0.9999696612358093
      ],
      "min": [
        -0.9993693828582764,
        -0.9982127547264099,
        -0.9996676445007324
      ],
      "type": "VEC3"
    },
    {
      "bufferView": 0,
      "byteOffset": 1147344,
      "componentType": 5125,
      "count": 98298,
      "type": "SCALAR"
    },
    {
      "bufferView": 1,
      "byteOffset": 6253776,
      "componentType": 5126,
      "count": 65532,
      "max": [
        1.1595499515533447,
        0.9589599967002869,
        1.1229000091552734
      ],
      "min": [
        -0.3712399899959564,
        -1.217650055885315,
        -1.1286200284957886
      ],
      "type": "VEC3"
    },
    {
      "bufferView": 1,
      "byteOffset": 7040160,
      "componentType": 5126,
      "count": 65532,
      "max": [
        0.9999325275421143,
        0.9992519021034241,
        0.997562050819397
      ],
      "min": [
        -0.9813334941864014,
        -0.9995175004005432,
        -0.9990159273147583
      ],
      "type": "VEC3"
    },
    {
      "bufferView": 0,
      "byteOffset": 1540536,
      "componentType": 5125,
      "count": 98298,
      "type": "SCALAR"
    },
    {
      "bufferView": 1,
      "byteOffset": 7826544,
      "componentType": 5126,
      "count": 65532,
      "max": [
        0.9769399762153625,
        1.0051499605178833,
        1.0051499605178833
      ],
      "min": [
        -1.0960999727249146,
        -1.0898000001907349,
        -1.2397099733352661
      ],
      "type": "VEC3"
    },
    {
      "bufferView": 1,
      "byteOffset": 8612928,
      "componentType": 5126,
      "count": 65532,
      "max": [
        0.9999325275421143,
        0.9993749856948853,
        0.9989842772483826
      ],
      "min": [
        -0.9992591738700867,
        -0.9994211792945862,
        -0.9996525049209595
      ],
      "type": "VEC3"
    },
    {
      "bufferView": 0,
      "byteOffset": 1933728,
      "componentType": 5125,
      "count": 98298,
      "type": "SCALAR"
    },
    {
      "bufferView": 1,
      "byteOffset": 9399312,
      "componentType": 5126,
      "count": 65532,
      "max": [
        1.1220099925994873,
        1.240939974784851,
        0.7511699795722961
      ],
      "min": [
        -1.19336998462677,
        -1.1518399715423584,
        -0.9545199871063232
      ],
      "type": "VEC3"
    },
    {
      "bufferView": 1,
      "byteOffset": 10185696,
      "componentType": 5126,
      "count": 65532,
      "max": [
        0.9988941550254822,
        0.9972749948501587,
        0.9992499947547913
      ],
      "min": [
        -0.9969590306282043,
        -0.999671220779419,
        -0.9996525049209595
      ],
      "type": "VEC3"
    },
    {
      "bufferView": 0,
      "byteOffset": 2326920,
      "componentType": 5125,
      "count": 98298,
      "type": "SCALAR"
    },
    {
      "bufferView": 1,
      "byteOffset": 10972080,
      "componentType": 5126,
      "count": 65532,
      "max": [
        1.1215699911117554,
        1.1944600343704224,
        0.755020022392273
      ],
      "min": [
        -1.1991300582885742,
        -1.1563700437545776,
        -0.19648000597953796
      ],
      "type": "VEC3"
    },
    {
      "bufferView": 1,
      "byteOffset": 11758464,
      "componentType": 5126,
      "count": 65532,
      "max": [
        0.9977386593818665,
        0.9970070123672485,
        0.9997970461845398
      ],
      "min": [
        -0.9962688088417053,
        -0.9997993111610413,
        -0.9998050928115845
      ],
      "type": "VEC3"
    },
    {
      "bufferView": 0,
      "byteOffset": 2720112,
      "componentType": 5125,
      "count": 98298,
      "type": "SCALAR"
    },
    {
      "bufferView": 1,
      "byteOffset": 12544848,
      "componentType": 5126,
      "count": 7196,
      "max": [
        0.8882899880409241,
        1.1682100296020508,
        0.6389999985694885
      ],
      "min": [
        -0.3559199869632721,
        0.2691200077533722,
        -0.07955999672412872
      ],
      "type": "VEC3"
    },
    {
      "bufferView": 1,
      "byteOffset": 12631200,
      "componentType": 5126,
      "count": 7196,
      "max": [
        0.9916909337043762,
        0.9799675345420837,
        0.9954099059104919
      ],
      "min": [
        -0.9615364074707031,
        -0.9997993111610413,
        -0.9871528148651123
      ],
      "type": "VEC3"
    },
    {
      "bufferView": 0,
      "byteOffset": 3113304,
      "componentType": 5125,
      "count": 10794,
      "type": "SCALAR"
    },
    {
      "bufferView": 1,
      "byteOffset": 12717552,
      "componentType": 5126,
      "count": 65534,
      "max": [
        25.681640625,
        0.5872099995613098,
        21.22507095336914
      ],
      "min": [
        -17.88797950744629,
        -43.31359100341797,
        -23.550750732421875
      ],
      "type": "VEC3"
    },
    {
      "bufferView": 1,
      "byteOffset": 13503960,
      "componentType": 5126,
      "count": 65534,
      "max": [
        1.0,
        1.0,
        1.0
      ],
      "min": [
        -1.0,
        -1.0,
        -1.0
      ],
      "type": "VEC3"
    },
    {
      "bufferView": 0,
      "byteOffset": 3156480,
      "componentType": 5125,
      "count": 77136,
      "type": "SCALAR"
    },
    {
      "bufferView": 1,
      "byteOffset": 14290368,
      "componentType": 5126,
      "count": 38085,
      "max": [
        22.67041015625,
        0.31582000851631165,
        21.22507095336914
      ],
      "min": [
        -17.88797950744629,
        -43.33483123779297,
        -20.637939453125
      ],
      "type": "VEC3"
    },
    {
      "bufferView": 1,
      "byteOffset": 14747388,
      "componentType": 5126,
      "count": 38085,
      "max": [
        1.0,
        1.0,
        1.0
      ],
      "min": [
        -1.0,
        -1.0,
        -1.0
      ],
      "type": "VEC3"
    },
    {
      "bufferView": 0,
      "byteOffset": 3465024,
      "componentType": 5125,
      "count": 42900,
      "type": "SCALAR"
    },
    {
      "bufferView": 1,
      "byteOffset": 15204408,
      "componentType": 5126,
      "count": 814,
      "max": [
        18.31014060974121,
        -5.714369773864746,
        14.405449867248535
      ],
      "min": [
        -15.826939582824707,
        -38.482139587402344,
        -19.965450286865234
      ],
      "type": "VEC3"
    },
    {
      "bufferView": 1,
      "byteOffset": 15214176,
      "componentType": 5126,
      "count": 814,
      "max": [
        0.9932457208633423,
        0.9951677322387695,
        0.9798812866210938
      ],
      "min": [
        -0.965508759021759,
        -0.9770569801330566,
        -0.9474486112594604
      ],
      "type": "VEC3"
    },
    {
      "bufferView": 0,
      "byteOffset": 3636624,
      "componentType": 5125,
      "count": 960,
      "type": "SCALAR"
    }
  ],
  "asset": {
    "extras": {
      "author": "Arigaia Sekuin (https://sketchfab.com/arigaia.sekuin)",
      "license": "CC-BY-4.0 (http://creativecommons.org/licenses/by/4.0/)",
      "source": "https://sketchfab.com/3d-models/abstract-ball-c8273db0c9834271b4bb5e952b1856ad",
      "title": "Abstract Ball"
    },
    "generator": "Sketchfab-12.67.0",
    "version": "2.0"
  },
  "bufferViews": [
    {
      "buffer": 0,
      "byteLength": 3640464,
      "name": "floatBufferViews",
      "target": 34963
    },
    {
      "buffer": 0,
      "byteLength": 15223944,
      "byteOffset": 3640464,
      "byteStride": 12,
      "name": "floatBufferViews",
      "target": 34962
    }
  ],
  "buffers": [
    {
      "byteLength": 18864408,
      "uri": "scene.bin"
    }
  ],
  "materials": [
    {
      "doubleSided": true,
      "name": "LightRing.002",
      "pbrMetallicRoughness": {
        "baseColorFactor": [
          0.22232376186523486,
          0.22232376186523486,
          0.22232376186523486,
          1.0
        ],
        "roughnessFactor": 0.6
      }
    },
    {
      "doubleSided": true,
      "emissiveFactor": [
        0.3244414887358994,
        0.6107230426916921,
        0.315979090740663
      ],
      "name": "WireframeSphere.002",
      "pbrMetallicRoughness": {
        "baseColorFactor": [
          0.08765478249605671,
          0.8675685975609756,
          0.08468134374264998,
          1.0
        ],
        "roughnessFactor": 0.4
      }
    },
    {
      "doubleSided": true,
      "emissiveFactor": [
        0.2610518292682927,
        0.2610518292682927,
        0.2610518292682927
      ],
      "name": "Core.004",
      "pbrMetallicRoughness": {
        "roughnessFactor": 0.0651162863
      }
    },
    {
      "doubleSided": true,
      "name": "Material.005",
      "pbrMetallicRoughness": {
        "baseColorFactor": [
          0.08599371061178801,
          0.08466835824043972,
          0.0774081853328828,
          1.0
        ],
        "metallicFactor": 0.4651295731707317,
        "roughnessFactor": 0.4
      }
    }
  ],
  "meshes": [
    {
      "name": "Icosphere.011_0",
      "primitives": [
        {
          "attributes": {
            "NORMAL": 1,
            "POSITION": 0
          },
          "indices": 2,
          "material": 2,
          "mode": 4
        }
      ]
    },
    {
      "name": "Icosphere.011_1",
      "primitives": [
        {
          "attributes": {
            "NORMAL": 4,
            "POSITION": 3
          },
          "indices": 5,
          "material": 3,
          "mode": 4
        }
      ]
    },
    {
      "name": "Icosphere.003_0",
      "primitives": [
        {
          "attributes": {
            "NORMAL": 7,
            "POSITION": 6
          },
          "indices": 8,
          "material": 1,
          "mode": 4
        }
      ]
    },
    {
      "name": "Icosphere.003_0",
      "primitives": [
        {
          "attributes": {
            "NORMAL": 10,
            "POSITION": 9
          },
          "indices": 11,
          "material": 1,
          "mode": 4
        }
      ]
    },
    {
      "name": "Icosphere.003_0",
      "primitives": [
        {
          "attributes": {
            "NORMAL": 13,
            "POSITION": 12
          },
          "indices": 14,
          "material": 1,
          "mode": 4
        }
      ]
    },
    {
      "name": "Icosphere.003_0",
      "primitives": [
        {
          "attributes": {
            "NORMAL": 16,
            "POSITION": 15
          },
          "indices": 17,
          "material": 1,
          "mode": 4
        }
      ]
    },
    {
      "name": "Icosphere.003_0",
      "primitives": [
        {
          "attributes": {
            "NORMAL": 19,
            "POSITION": 18
          },
          "indices": 20,
          "material": 1,
          "mode": 4
        }
      ]
    },
    {
      "name": "Icosphere.003_0",
      "primitives": [
        {
          "attributes": {
            "NORMAL": 22,
            "POSITION": 21
          },
          "indices": 23,
          "material": 1,
          "mode": 4
        }
      ]
    },
    {
      "name": "Icosphere.003_0",
      "primitives": [
        {
          "attributes": {
            "NORMAL": 25,
            "POSITION": 24
          },
          "indices": 26,
          "material": 1,
          "mode": 4
        }
      ]
    },
    {
      "name": "Icosphere.003_0",
      "primitives": [
        {
          "attributes": {
            "NORMAL": 28,
            "POSITION": 27
          },
          "indices": 29,
          "material": 1,
          "mode": 4
        }
      ]
    },
    {
      "name": "Cube_cell.3568_0",
      "primitives": [
        {
          "attributes": {
            "NORMAL": 31,
            "POSITION": 30
          },
          "indices": 32,
          "material": 0,
          "mode": 4
        }
      ]
    },
    {
      "name": "Cube_cell.3568_0",
      "primitives": [
        {
          "attributes": {
            "NORMAL": 34,
            "POSITION": 33
          },
          "indices": 35,
          "material": 0,
          "mode": 4
        }
      ]
    },
    {
      "name": "Cube_cell.3568_1",
      "primitives": [
        {
          "attributes": {
            "NORMAL": 37,
            "POSITION": 36
          },
          "indices": 38,
          "material": 1,
          "mode": 4
        }
      ]
    }
  ],
  "nodes": [
    {
      "children": [
        1
      ],
      "matrix": [
        1.0,
        0.0,
        0.0,
        0.0,
        0.0,
        2.220446049250313e-16,
        -1.0,
        0.0,
        0.0,
        1.0,
        2.220446049250313e-16,
        0.0,
        0.0,
        0.0,
        0.0,
        1.0
      ],
      "name": "Sketchfab_model"
    },
    {
      "children": [
        2,
        5,
        14,
        18,
        20,
        22
      ],
      "name": "Root"
    },
    {
      "children": [
        3,
        4
      ],
      "matrix": [
        0.8971700000000001,
        0.0,
        0.0,
        0.0,
        0.0,
        0.8971700000000001,
        0.0,
        0.0,
        0.0,
        0.0,
        0.8971700000000001,
        0.0,
        0.0,
        0.0,
        0.0,
        1.0
      ],
      "name": "Icosphere.011"
    },
    {
      "mesh": 0,
      "name": "Icosphere.011_0"
    },
    {
      "mesh": 1,
      "name": "Icosphere.011_1"
    },
    {
      "children": [
        6,
        7,
        8,
        9,
        10,
        11,
        12,
        13
      ],
      "matrix": [
        0.8971700000000001,
        0.0,
        0.0,
        0.0,
        0.0,
        0.8971700000000001,
        0.0,
        0.0,
        0.0,
        0.0,
        0.8971700000000001,
        0.0,
        0.0,
        0.0,
        0.0,
        1.0
      ],
      "name": "Icosphere.003"
    },
    {
      "mesh": 2,
      "name": "Icosphere.003_0"
    },
    {
      "mesh": 3,
      "name": "Icosphere.003_0"
    },
    {
      "mesh": 4,
      "name": "Icosphere.003_0"
    },
    {
      "mesh": 5,
      "name": "Icosphere.003_0"
    },
    {
      "mesh": 6,
      "name": "Icosphere.003_0"
    },
    {
      "mesh": 7,
      "name": "Icosphere.003_0"
    },
    {
      "mesh": 8,
      "name": "Icosphere.003_0"
    },
    {
      "mesh": 9,
      "name": "Icosphere.003_0"
    },
    {
      "children": [
        15,
        16,
        17
      ],
      "matrix": [
        -0.0,
        0.07211000000000001,
        0.021220000000000003,
        0.0,
        0.05443000000000001,
        -0.014640000000000002,
        0.049740000000000006,
        0.0,
        0.051850000000000014,
        0.015370000000000003,
        -0.05221000000000001,
        0.0,
        1.09469,
        -0.46002000000000004,
        0.8906600000000001,
        1.0
      ],
      "name": "Cube_cell.3568"
    },
    {
      "mesh": 10,
      "name": "Cube_cell.3568_0"
    },
    {
      "mesh": 11,
      "name": "Cube_cell.3568_0"
    },
    {
      "mesh": 12,
      "name": "Cube_cell.3568_1"
    },
    {
      "children": [
        19
      ],
      "matrix": [
        1.0,
        0.0,
        0.0,
        0.0,
        0.0,
        1.0,
        0.0,
        0.0,
        0.0,
        0.0,
        1.0,
        0.0,
        0.0,
        0.0,
        4.959090000000001,
        1.0
      ],
      "name": "Sun"
    },
    {
      "name": "Sun"
    },
    {
      "children": [
        21
      ],
      "matrix": [
        0.14047,
        -0.77683,
        0.6138400000000002,
        0.0,
        0.83716,
        0.4242,
        0.3452700000000001,
        0.0,
        -0.52861,
        0.46539,
        0.7099200000000001,
        0.0,
        -4.39846,
        3.8022899999999997,
        4.634949999999999,
        1.0
      ],
      "name": "Sun.001"
    },
    {
      "name": "Sun.001"
    },
    {
      "children": [
        23
      ],
      "matrix": [
        0.6522800000000001,
        0.0,
        -0.7579700000000001,
        0.0,
        0.0,
        1.0,
        0.0,
        0.0,
        0.7579700000000001,
        0.0,
        0.6522800000000001,
        0.0,
        5.13653,
        -0.23497,
        3.6528599999999996,
        1.0
      ],
      "name": "Sun.002"
    },
    {
      "name": "Sun.002"
    }
  ],
  "scene": 0,
  "scenes": [
    {
      "name": "Sketchfab_Scene",
      "nodes": [
        0
      ]
    }
  ]
}
