{
  "accessors": [
    {
      "bufferView": 1,
      "componentType": 5126,
      "count": 3960,
      "max": [
        0.9617599844932556,
        1.0112500190734863,
        1.0112500190734863
      ],
      "min": [
        -1.0396900177001953,
        -1.068310022354126,
        -1.0112500190734863
      ],
      "type": "VEC3"
    },
    {
      "bufferView": 1,
      "byteOffset": 47520,
      "componentType": 5126,
      "count": 3960,
      "max": [
        0.9904208183288574,
        1.0,
        0.9987524747848511
      ],
      "min": [
        -0.9822456240653992,
        -1.0,
        -0.9973553419113159
      ],
      "type": "VEC3"
    },
    {
      "bufferView": 0,
      "componentType": 5125,
      "count": 5940,
      "type": "SCALAR"
    },
    {
      "bufferView": 1,
      "byteOffset": 95040,
      "componentType": 5126,
      "count": 525,
      "max": [
        0.997730016708374,
        1.0467400550842285,
        1.0
      ],
      "min": [
        -1.031000018119812,
        -1.0593600273132324,
        -1.030210018157959
      ],
      "type": "VEC3"
    },
    {
      "bufferView": 1,
      "byteOffset": 101340,
      "componentType": 5126,
      "count": 525,
      "max": [
        0.9677383303642273,
        0.9435235857963562,
        1.0
      ],
      "min": [
        -0.9920780658721924,
        -0.9808313250541687,
        -0.9998918771743774
      ],
      "type": "VEC3"
    },
    {
      "bufferView": 0,
      "byteOffset": 23760,
      "componentType": 5125,
      "count": 852,
      "type": "SCALAR"
    },
    {
      "bufferView": 1,
      "byteOffset": 107640,
      "componentType": 5126,
      "count": 18416,
      "max": [
        1.0868500471115112,
        1.0868500471115112,
        1.0868500471115112
      ],
      "min": [
        -1.0868500471115112,
        -1.0868500471115112,
        -1.0868500471115112
      ],
      "type": "VEC3"
    },
    {
      "bufferView": 1,
      "byteOffset": 328632,
      "componentType": 5126,
      "count": 18416,
      "max": [
        0.9999778866767883,
        0.9999778866767883,
        0.9999780058860779
      ],
      "min": [
        -0.9999778866767883,
        -0.9999778866767883,
        -0.9999780058860779
      ],
      "type": "VEC3"
    },
    {
      "bufferView": 0,
      "byteOffset": 27168,
      "componentType": 5125,
      "count": 147456,
      "type": "SCALAR"
    },
    {
      "bufferView": 1,
      "byteOffset": 549624,
      "componentType": 5126,
      "count": 3064,
      "max": [
        1.076859951019287,
        1.076859951019287,
        1.076859951019287
      ],
      "min": [
        -1.076859951019287,
        -1.076859951019287,
        -1.076859951019287
      ],
      "type": "VEC3"
    },
    {
      "bufferView": 1,
      "byteOffset": 586392,
      "componentType": 5126,
      "count": 3064,
      "max": [
        0.999916672706604,
        0.999916672706604,
        0.999916672706604
      ],
      "min": [
        -0.999916672706604,
        -0.999916672706604,
        -0.999916672706604
      ],
      "type": "VEC3"
    },
    {
      "bufferView": 0,
      "byteOffset": 616992,
      "componentType": 5125,
      "count": 18432,
      "type": "SCALAR"
    }
  ],
  "asset": {
    "extras": {
      "author": "Arigaia Sekuin (https://sketchfab.com/arigaia.sekuin)",
      "license": "CC-BY-4.0 (http://creativecommons.org/licenses/by/4.0/)",
      "source": "https://sketchfab.com/3d-models/abstract-ball-ffafe62053a745b8b2c8182e59239e79",
      "title": "Abstract Ball"
    },
    "generator": "Sketchfab-12.67.0",
    "version": "2.0"
  },
  "bufferViews": [
    {
      "buffer": 0,
      "byteLength": 690720,
      "name": "floatBufferViews",
      "target": 34963
    },
    {
      "buffer": 0,
      "byteLength": 623160,
      "byteOffset": 690720,
      "byteStride": 12,
      "name": "floatBufferViews",
      "target": 34962
    }
  ],
  "buffers": [
    {
      "byteLength": 1313880,
      "uri": "scene.bin"
    }
  ],
  "materials": [
    {
      "doubleSided": true,
      "name": "Ballz.002",
      "pbrMetallicRoughness": {
        "roughnessFactor": 0.0247199908
      }
    },
    {
      "doubleSided": true,
      "name": "Wireframy.002",
      "pbrMetallicRoughness": {
        "roughnessFactor": 0.6
      }
    },
    {
      "doubleSided": true,
      "name": "Lightballz.002",
      "pbrMetallicRoughness": {
        "baseColorFactor": [
          0.09927591463414634,
          0.09927591463414634,
          0.09927591463414634,
          1.0
        ],
        "metallicFactor": 0.2943978658536585,
        "roughnessFactor": 0.0202019364
      }
    },
    {
      "doubleSided": true,
      "emissiveFactor": [
        0.30222009081192835,
        0.9610613484853278,
        0.9893293567139864
      ],
      "name": "ballz2.002",
      "pbrMetallicRoughness": {
        "roughnessFactor": 0.6
      }
    }
  ],
  "meshes": [
    {
      "name": "Icosphere.002_0",
      "primitives": [
        {
          "attributes": {
            "NORMAL": 1,
            "POSITION": 0
          },
          "indices": 2,
          "material": 3,
          "mode": 4
        }
      ]
    },
    {
      "name": "Icosphere.003_0",
      "primitives": [
        {
          "attributes": {
            "NORMAL": 4,
            "POSITION": 3
          },
          "indices": 5,
          "material": 2,
          "mode": 4
        }
      ]
    },
    {
      "name": "Cube.002_0",
      "primitives": [
        {
          "attributes": {
            "NORMAL": 7,
            "POSITION": 6
          },
          "indices": 8,
          "material": 1,
          "mode": 4
        }
      ]
    },
    {
      "name": "Cube.003_0",
      "primitives": [
        {
          "attributes": {
            "NORMAL": 10,
            "POSITION": 9
          },
          "indices": 11,
          "material": 0,
          "mode": 4
        }
      ]
    }
  ],
  "nodes": [
    {
      "children": [
        1
      ],
      "matrix": [
        1.0,
        0.0,
        0.0,
        0.0,
        0.0,
        3.828568672208042e-16,
        -1.0,
        0.0,
        0.0,
        1.0,
        3.828568672208042e-16,
        0.0,
        9.45971407873003e-08,
        2.2204453204022852e-16,
        -2.9383897981460905e-08,
        1.0
      ],
      "name": "Sketchfab_model"
    },
    {
      "children": [
        2,
        4,
        6,
        8,
        10,
        12,
        14
      ],
      "name": "Root"
    },
    {
      "children": [
        3
      ],
      "matrix": [
        0.19601000000000005,
        1.04084,
        -0.6664700000000001,
        0.0,
        -0.24925000000000003,
        0.6942200000000002,
        1.01088,
        0.0,
        1.21054,
        -0.025590000000000005,
        0.31605000000000005,
        0.0,
        0.0,
        0.0,
        0.0,
        1.0
      ],
      "name": "Icosphere.002"
    },
    {
      "mesh": 0,
      "name": "Icosphere.002_0"
    },
    {
      "children": [
        5
      ],
      "matrix": [
        0.19601000000000005,
        1.04084,
        -0.6664700000000001,
        0.0,
        -0.24925000000000003,
        0.6942200000000002,
        1.01088,
        0.0,
        1.21054,
        -0.025590000000000005,
        0.31605000000000005,
        0.0,
        0.0,
        0.0,
        0.0,
        1.0
      ],
      "name": "Icosphere.003"
    },
    {
      "mesh": 1,
      "name": "Icosphere.003_0"
    },
    {
      "children": [
        7
      ],
      "matrix": [
        -0.8093,
        0.53523,
        -0.79026,
        0.0,
        0.002850000000000001,
        1.0374599999999998,
        0.6997300000000002,
        0.0,
        0.95445,
        0.45072999999999996,
        -0.6721700000000002,
        0.0,
        0.0,
        0.0,
        0.0,
        1.0
      ],
      "name": "Cube.002"
    },
    {
      "mesh": 2,
      "name": "Cube.002_0"
    },
    {
      "children": [
        9
      ],
      "matrix": [
        -0.09361000000000003,
        1.12256,
        -0.5450200000000001,
        0.0,
        -0.6728900000000002,
        0.41487000000000007,
        0.9700799999999999,
        0.0,
        1.05091,
        0.36563,
        0.57258,
        0.0,
        0.0,
        0.0,
        0.0,
        1.0
      ],
      "name": "Cube.003"
    },
    {
      "mesh": 3,
      "name": "Cube.003_0"
    },
    {
      "children": [
        11
      ],
      "matrix": [
        0.6633000000000001,
        0.0,
        -0.7483500000000001,
        0.0,
        0.0,
        1.0,
        0.0,
        0.0,
        0.7483500000000001,
        0.0,
        0.6633000000000001,
        0.0,
        5.16624,
        0.038840000000000006,
        3.21115,
        1.0
      ],
      "name": "Sun"
    },
    {
      "name": "Sun"
    },
    {
      "children": [
        13
      ],
      "matrix": [
        -0.41087000000000007,
        0.8991900000000002,
        0.15044000000000005,
        0.0,
        -0.6538900000000002,
        -0.17566,
        -0.7359200000000001,
        0.0,
        -0.6353000000000001,
        -0.40074,
        0.6601500000000001,
        0.0,
        -4.88883,
        -2.5996099999999998,
        4.80552,
        1.0
      ],
      "name": "Sun.001"
    },
    {
      "name": "Sun.001"
    },
    {
      "children": [
        15
      ],
      "matrix": [
        0.055880000000000006,
        0.08517000000000002,
        -0.9948,
        0.0,
        -0.99808,
        0.031580000000000004,
        -0.05336000000000001,
        0.0,
        0.026870000000000005,
        0.99587,
        0.08677000000000003,
        0.0,
        0.31419,
        11.021009999999999,
        0.9791099999999999,
        1.0
      ],
      "name": "Sun.002"
    },
    {
      "name": "Sun.002"
    }
  ],
  "scene": 0,
  "scenes": [
    {
      "name": "Sketchfab_Scene",
      "nodes": [
        0
      ]
    }
  ]
}
